<?xml version="1.0" encoding="utf-8"?>
<!-- Generator: Adobe Illustrator 23.0.0, SVG Export Plug-In . SVG Version: 6.00 Build 0)  -->
<svg version="1.1" id="Layer_1" xmlns="http://www.w3.org/2000/svg" xmlns:xlink="http://www.w3.org/1999/xlink" x="0px" y="0px"
	 width="30px" height="30.3px" viewBox="0 0 30 30.3" style="enable-background:new 0 0 30 30.3;" xml:space="preserve">
<style type="text/css">
	.st0{fill:#63A243;}
	.st1{fill:#4184B6;}
</style>
<polygon class="st0" points="29.9,9 26.4,5.5 13.9,18 7.9,12 4.4,15.5 13.9,25 "/>
<path class="st0" d="M27,16.5c-0.6,6.1-5.8,11-12.1,11C8.3,27.5,2.8,22,2.8,15.3S8.3,3.2,15,3.2c2.5,0,4.8,0.8,6.8,2.1l2.1-2
	c-2.5-1.8-5.5-2.9-8.9-2.9c-8.3,0-15,6.7-15,15s6.7,15,15,15c8.3,0,15-6.7,15-15c0-0.5,0-1-0.1-1.5L27,16.5z"/>
</svg>